<svg width="83" height="83" viewBox="0 0 83 83" fill="none" xmlns="http://www.w3.org/2000/svg">
<path d="M64.6635 39.9099C62.6093 39.705 58.0897 39.705 58.0897 36.8285C58.0897 32.9262 63.8413 27.7906 73.0854 22.2438C75.9606 20.3945 81.9197 17.5193 81.9197 13.6157C81.9197 10.5344 79.6593 8.2752 74.9348 8.89122C70.4152 9.50723 63.4302 12.5886 54.1874 20.3945C44.5321 28.4066 35.4942 41.7592 35.4942 54.9056C35.4942 68.2583 44.5321 81.6109 59.1181 81.6109C70.8263 81.6109 80.8926 72.7779 80.8926 60.6573C80.8913 51.4132 74.5237 40.7321 64.6635 39.9099Z" fill="white"/>
<path d="M35.786 34.134C34.0682 33.2277 32.186 32.6751 30.2509 32.509C28.1967 32.3041 23.6771 32.3041 23.6771 29.4276C23.6771 25.5253 29.4287 20.3897 38.6728 14.843C41.5493 12.9936 47.5059 10.1184 47.5059 6.21486C47.5059 3.13348 45.2454 0.874325 40.5209 1.49034C36.0013 2.10636 29.0163 5.18773 19.7735 12.9936C10.1195 21.0057 1.08032 34.3583 1.08032 47.5061C1.08032 60.8587 10.1182 74.2113 24.7042 74.2113C28.0389 74.2161 31.3337 73.4859 34.3542 72.0728C31.4765 66.8697 29.9423 60.8496 29.9423 54.9073C29.9436 47.5696 32.3065 40.4537 35.786 34.134Z" fill="white"/>
</svg>
