<svg width="1440" height="10" viewBox="0 0 1440 10" fill="none" xmlns="http://www.w3.org/2000/svg">
<path d="M245.333 10H266.667L256 0L245.333 10Z" fill="#101424"/>
<path d="M586.667 10H608L597.333 0L586.667 10Z" fill="#101424"/>
<path d="M928 10H949.333L938.667 0L928 10Z" fill="#101424"/>
<path d="M74.6667 10H96L85.3334 0L74.6667 10Z" fill="#101424"/>
<path d="M416 10H437.333L426.667 0L416 10Z" fill="#101424"/>
<path d="M757.333 10H778.667L768 0L757.333 10Z" fill="#101424"/>
<path d="M1098.67 10H1120L1109.33 0L1098.67 10Z" fill="#101424"/>
<path d="M-10.6667 10H10.6666L-2.00272e-05 0L-10.6667 10Z" fill="#101424"/>
<path d="M330.667 10H352L341.333 0L330.667 10Z" fill="#101424"/>
<path d="M672 10H693.333L682.667 0L672 10Z" fill="#101424"/>
<path d="M1013.33 10H1034.67L1024 0L1013.33 10Z" fill="#101424"/>
<path d="M160 10H181.333L170.667 0L160 10Z" fill="#101424"/>
<path d="M501.333 10H522.667L512 0L501.333 10Z" fill="#101424"/>
<path d="M842.667 10H864L853.333 0L842.667 10Z" fill="#101424"/>
<path d="M1184 10H1205.33L1194.67 0L1184 10Z" fill="#101424"/>
<path d="M1312 10H1333.33L1322.67 0L1312 10Z" fill="#101424"/>
<path d="M288 10H309.333L298.667 0L288 10Z" fill="#101424"/>
<path d="M629.333 10H650.667L640 0L629.333 10Z" fill="#101424"/>
<path d="M970.667 10H992L981.333 0L970.667 10Z" fill="#101424"/>
<path d="M117.333 10H138.667L128 0L117.333 10Z" fill="#101424"/>
<path d="M458.667 10H480L469.333 0L458.667 10Z" fill="#101424"/>
<path d="M800 10H821.333L810.667 0L800 10Z" fill="#101424"/>
<path d="M1141.33 10H1162.67L1152 0L1141.33 10Z" fill="#101424"/>
<path d="M1269.33 10H1290.67L1280 0L1269.33 10Z" fill="#101424"/>
<path d="M32 10H53.3333L42.6667 0L32 10Z" fill="#101424"/>
<path d="M373.333 10H394.667L384 0L373.333 10Z" fill="#101424"/>
<path d="M714.667 10H736L725.333 0L714.667 10Z" fill="#101424"/>
<path d="M1056 10H1077.33L1066.67 0L1056 10Z" fill="#101424"/>
<path d="M202.667 10H224L213.333 0L202.667 10Z" fill="#101424"/>
<path d="M544 10H565.333L554.667 0L544 10Z" fill="#101424"/>
<path d="M885.333 10H906.667L896 0L885.333 10Z" fill="#101424"/>
<path d="M1226.67 10H1248L1237.33 0L1226.67 10Z" fill="#101424"/>
<path d="M1354.67 10H1376L1365.33 0L1354.67 10Z" fill="#101424"/>
<path d="M1397.33 10H1418.67L1408 0L1397.33 10Z" fill="#101424"/>
<path d="M266.667 10H288L277.333 0L266.667 10Z" fill="#101424"/>
<path d="M608 10H629.333L618.667 0L608 10Z" fill="#101424"/>
<path d="M949.333 10H970.667L960 0L949.333 10Z" fill="#101424"/>
<path d="M96 10H117.333L106.667 0L96 10Z" fill="#101424"/>
<path d="M437.333 10H458.667L448 0L437.333 10Z" fill="#101424"/>
<path d="M778.667 10H800L789.333 0L778.667 10Z" fill="#101424"/>
<path d="M1120 10H1141.33L1130.67 0L1120 10Z" fill="#101424"/>
<path d="M10.6667 10H32L21.3334 0L10.6667 10Z" fill="#101424"/>
<path d="M352 10H373.333L362.667 0L352 10Z" fill="#101424"/>
<path d="M693.333 10H714.667L704 0L693.333 10Z" fill="#101424"/>
<path d="M1034.67 10H1056L1045.33 0L1034.67 10Z" fill="#101424"/>
<path d="M181.333 10H202.667L192 0L181.333 10Z" fill="#101424"/>
<path d="M522.667 10H544L533.333 0L522.667 10Z" fill="#101424"/>
<path d="M864 10H885.333L874.667 0L864 10Z" fill="#101424"/>
<path d="M1205.33 10H1226.67L1216 0L1205.33 10Z" fill="#101424"/>
<path d="M1333.33 10H1354.67L1344 0L1333.33 10Z" fill="#101424"/>
<path d="M309.333 10H330.667L320 0L309.333 10Z" fill="#101424"/>
<path d="M650.667 10H672L661.333 0L650.667 10Z" fill="#101424"/>
<path d="M992 10H1013.33L1002.67 0L992 10Z" fill="#101424"/>
<path d="M138.667 10H160L149.333 0L138.667 10Z" fill="#101424"/>
<path d="M480 10H501.333L490.667 0L480 10Z" fill="#101424"/>
<path d="M821.333 10H842.667L832 0L821.333 10Z" fill="#101424"/>
<path d="M1162.67 10H1184L1173.33 0L1162.67 10Z" fill="#101424"/>
<path d="M1290.67 10H1312L1301.33 0L1290.67 10Z" fill="#101424"/>
<path d="M53.3333 10H74.6666L64 0L53.3333 10Z" fill="#101424"/>
<path d="M394.667 10H416L405.333 0L394.667 10Z" fill="#101424"/>
<path d="M736 10H757.333L746.667 0L736 10Z" fill="#101424"/>
<path d="M1077.33 10H1098.67L1088 0L1077.33 10Z" fill="#101424"/>
<path d="M224 10H245.333L234.667 0L224 10Z" fill="#101424"/>
<path d="M565.333 10H586.667L576 0L565.333 10Z" fill="#101424"/>
<path d="M906.667 10H928L917.333 0L906.667 10Z" fill="#101424"/>
<path d="M1248 10H1269.33L1258.67 0L1248 10Z" fill="#101424"/>
<path d="M1376 10H1397.33L1386.67 0L1376 10Z" fill="#101424"/>
<path d="M1418.67 10H1440L1429.33 0L1418.67 10Z" fill="#101424"/>
</svg>
