<svg width="161" height="50" viewBox="0 0 161 50" fill="none" xmlns="http://www.w3.org/2000/svg">
<path d="M35.9693 21.0563H28.3739C23.8753 21.0563 20.226 17.447 20.226 12.9907H27.8214C32.32 12.9907 35.9693 16.6001 35.9693 21.0563Z" fill="#00CCAA"/>
<path d="M11.4026 29.5564H14.2406C17.0186 29.5564 19.2726 31.7876 19.2726 34.5376V37.6189C14.9256 37.6189 11.4026 34.1314 11.4026 29.8283V29.5564Z" fill="#00846E"/>
<path d="M28.0992 37.6188V22.0344H28.6485C32.844 22.0344 36.2439 25.4 36.2439 29.5532C36.2439 34.0063 32.5978 37.6188 28.0961 37.6188H28.0992Z" fill="#00CCAA"/>
<path d="M27.1459 29.5564H24.3079C21.5298 29.5564 19.2758 31.7876 19.2758 34.5376V37.6189C23.6228 37.6189 27.1459 34.1314 27.1459 29.8283V29.5564Z" fill="#00846E"/>
<path d="M19.5505 28.5751V12.9907H19.0012C14.8057 12.9907 11.4058 16.3563 11.4058 20.5095C11.4058 24.9626 15.0519 28.5751 19.5536 28.5751H19.5505Z" fill="#00CCAA"/>
<path d="M40.4552 31.472L43.6973 29.5908C44.5149 31.8939 46.2859 33.4158 49.3954 33.4158C52.5049 33.4158 53.654 32.0876 53.654 30.4345C53.654 28.4251 51.8515 27.7439 48.4452 26.7064C44.8748 25.6376 41.4023 24.3408 41.4023 20.0595C41.4023 15.7783 44.9064 13.5095 48.7704 13.5095C52.6344 13.5095 55.3209 15.4876 56.7635 18.5033L53.5877 20.3189C52.7701 18.5033 51.3274 17.1408 48.7735 17.1408C46.5795 17.1408 45.1716 18.2439 45.1716 19.9626C45.1716 21.6814 46.4501 22.4595 49.79 23.497C53.5909 24.697 57.4233 25.8626 57.4233 30.372C57.4233 34.522 54.0834 37.0501 49.3007 37.0501C44.7801 37.0501 41.6706 34.8439 40.4583 31.472H40.4552Z" fill="white"/>
<path d="M58.0989 15.1813C58.0989 13.6376 59.3712 12.3813 60.9275 12.3813C62.4838 12.3813 63.756 13.6407 63.756 15.1813C63.756 16.722 62.4838 17.9845 60.9275 17.9845C59.3712 17.9845 58.0989 16.6845 58.0989 15.1813Z" fill="white"/>
<path d="M62.6984 20.4158H59.1596V36.6283H62.6984V20.4158Z" fill="white"/>
<path d="M74.0631 20.125V23.9188C71.7365 23.7563 69.0185 24.825 69.0185 28.4563V36.6281H65.4796V20.4156H69.0185V23.1406C70.0002 20.9344 71.9985 20.125 74.0631 20.125Z" fill="white"/>
<path d="M82.6435 33.8376C84.6102 33.8376 86.0813 32.9626 86.8673 31.8283L89.7811 33.5158C88.2753 35.722 85.8193 37.0501 82.6087 37.0501C77.2042 37.0501 73.7001 33.3876 73.7001 28.522C73.7001 23.6564 77.2042 19.9939 82.3467 19.9939C87.4892 19.9939 90.5672 23.8845 90.5672 28.5533C90.5672 29.0408 90.5009 29.5595 90.4377 30.0126H77.4031C77.9587 32.5408 80.0233 33.8376 82.6435 33.8376ZM86.9999 27.1595C86.5075 24.372 84.446 23.172 82.3151 23.172C79.6634 23.172 77.8608 24.7283 77.3683 27.1595H86.9968H86.9999Z" fill="white"/>
<path d="M107.277 26.672V36.6251H103.738V27.0283C103.738 24.5658 102.295 23.2689 100.069 23.2689C97.8438 23.2689 95.9087 24.6314 95.9087 27.9376V36.6283H92.3698V20.4158H95.9087V22.4908C96.9883 20.8033 98.7593 19.9939 100.985 19.9939C104.653 19.9939 107.273 22.4564 107.273 26.672H107.277Z" fill="white"/>
<path d="M108.849 25.2783C108.849 18.697 113.859 13.5095 120.835 13.5095C125.028 13.5095 128.762 15.6158 130.694 18.9251L127.417 20.8064C126.205 18.5689 123.717 17.1439 120.835 17.1439C115.888 17.1439 112.615 20.6126 112.615 25.2814C112.615 29.9501 115.892 33.4189 120.835 33.4189C123.717 33.4189 126.24 31.9908 127.417 29.7564L130.694 31.6033C128.794 34.9095 125.059 37.0501 120.835 37.0501C113.859 37.0501 108.849 31.8626 108.849 25.2814V25.2783Z" fill="url(#paint0_linear_8_457)"/>
<path d="M141.604 27.6126V36.6283H137.838V27.6126L129.848 13.9314H134.138L139.739 23.9814L145.307 13.9314H149.597L141.604 27.6126Z" fill="url(#paint1_linear_8_457)"/>
<defs>
<linearGradient id="paint0_linear_8_457" x1="96.4649" y1="24.4096" x2="150.081" y2="24.4096" gradientUnits="userSpaceOnUse">
<stop stop-color="#00846E"/>
<stop offset="1" stop-color="#00CCAA"/>
</linearGradient>
<linearGradient id="paint1_linear_8_457" x1="96.4649" y1="24.4096" x2="150.081" y2="24.4096" gradientUnits="userSpaceOnUse">
<stop stop-color="#00846E"/>
<stop offset="1" stop-color="#00CCAA"/>
</linearGradient>
</defs>
</svg>
