<svg width="83" height="83" viewBox="0 0 83 83" fill="none" xmlns="http://www.w3.org/2000/svg">
<path d="M18.3365 43.0901C20.3907 43.295 24.9103 43.295 24.9103 46.1715C24.9103 50.0738 19.1587 55.2094 9.91458 60.7562C7.03941 62.6055 1.08027 65.4807 1.08027 69.3843C1.08027 72.4656 3.34072 74.7248 8.06524 74.1088C12.5848 73.4928 19.5698 70.4114 28.8126 62.6055C38.4679 54.5934 47.5058 41.2408 47.5058 28.0944C47.5058 14.7417 38.4679 1.38911 23.8819 1.38911C12.1737 1.38911 2.10739 10.2221 2.10739 22.3427C2.10869 31.5868 8.47635 42.2679 18.3365 43.0901Z" fill="white"/>
<path d="M47.214 48.866C48.9318 49.7723 50.814 50.3249 52.7491 50.491C54.8033 50.6959 59.3229 50.6959 59.3229 53.5724C59.3229 57.4747 53.5713 62.6103 44.3272 68.157C41.4507 70.0064 35.4941 72.8816 35.4941 76.7851C35.4941 79.8665 37.7546 82.1257 42.4791 81.5097C46.9987 80.8936 53.9837 77.8123 63.2265 70.0064C72.8805 61.9943 81.9197 48.6417 81.9197 35.4939C81.9197 22.1413 72.8818 8.7887 58.2958 8.7887C54.9611 8.78392 51.6663 9.51408 48.6458 10.9272C51.5235 16.1303 53.0577 22.1504 53.0577 28.0927C53.0564 35.4304 50.6935 42.5463 47.214 48.866Z" fill="white"/>
</svg>
